<svg width="212" height="31" viewBox="0 0 212 31" fill="none" xmlns="http://www.w3.org/2000/svg">
<path fill-rule="evenodd" clip-rule="evenodd" d="M0 0.320876C0.283681 0.282367 0.567363 0.20535 0.851044 0.20535C5.11915 0.192514 9.38726 0.154007 13.6425 0.231024C15.0351 0.256697 16.4664 0.436405 17.8203 0.808657C20.67 1.57883 22.3334 3.78668 22.6945 6.71335C23.1329 10.2562 21.7661 12.9646 19.0066 15.0569C17.988 15.8271 16.8661 16.4818 15.7443 17.2134C18.8261 21.4109 21.9208 25.6212 25.1316 29.9727C24.4353 29.9727 23.9066 29.9727 23.3779 29.9727C21.8176 29.9727 20.2574 29.9984 18.6972 29.947C18.3877 29.9342 17.988 29.7545 17.8203 29.5106C14.9706 25.4928 12.1467 21.4494 9.32279 17.406C9.20674 17.2391 9.07779 17.0209 9.0649 16.8283C9.03911 16.0582 9.052 15.288 9.052 14.6847C10.7412 14.0942 12.353 13.6321 13.8746 12.9518C15.4735 12.233 16.5824 11.0007 16.8919 9.19075C17.3174 6.79036 16.1182 5.19867 13.6812 5.14732C11.0507 5.08314 8.42017 5.13448 5.7252 5.13448C5.7252 13.3882 5.7252 21.6034 5.7252 29.9085C3.76522 29.9085 1.88261 29.9085 0 29.9085C0 20.0374 0 10.1791 0 0.320876Z" fill="#0FC500"/>
<path fill-rule="evenodd" clip-rule="evenodd" d="M101.39 0.0256741C102.705 0.269564 104.021 0.462109 105.31 0.757344C106.084 0.924216 107.077 1.0269 107.515 1.54035C107.902 1.97679 107.657 2.96518 107.67 3.70969C107.683 4.59539 107.67 5.49393 107.67 6.3668C106.213 5.96887 104.833 5.50677 103.415 5.21153C100.965 4.71092 98.489 4.65957 96.0132 5.09601C91.7967 5.85335 89.4241 8.2409 88.7535 12.4384C88.4312 14.4665 88.5214 16.5075 89.0114 18.4971C89.9398 22.2453 92.4027 24.3889 96.1808 25.0564C99.8429 25.6982 103.402 25.2618 106.883 23.9782C107.103 23.9012 107.335 23.8113 107.618 23.7086C107.618 25.403 107.618 27.0332 107.618 28.6891C105.336 29.5748 102.95 29.9727 100.513 30.1011C97.5477 30.2551 94.6206 30.0626 91.7838 29.1512C87.5028 27.7777 84.7562 24.9152 83.5828 20.6151C82.577 16.9567 82.4997 13.2342 83.441 9.53736C84.7175 4.51837 88.1217 1.70723 93.0732 0.59047C94.1306 0.34658 95.2137 0.192544 96.284 0C97.9732 0.0256726 99.6753 0.0256741 101.39 0.0256741Z" fill="#0FC500"/>
<path fill-rule="evenodd" clip-rule="evenodd" d="M211.987 29.3053C208.402 30.1268 204.805 30.3193 201.246 29.2411C198.087 28.2912 196.075 26.1347 195.224 22.977C194.554 20.5124 194.489 17.9965 195.005 15.4934C195.688 12.1432 197.687 9.88398 200.975 8.88275C204.624 7.76599 208.325 7.93287 212 8.78006C212 10.2306 212 11.6939 212 13.1444C209.924 12.6566 207.822 12.4256 205.695 12.5668C202.651 12.7593 200.756 14.4024 200.356 17.252C200.227 18.1505 200.24 19.1004 200.33 20.0118C200.64 23.4519 202.742 25.4929 206.21 25.5057C208.145 25.5057 210.079 25.1463 212 24.9409C211.987 26.3914 211.987 27.8419 211.987 29.3053Z" fill="#0FC500"/>
<path fill-rule="evenodd" clip-rule="evenodd" d="M50.5081 9.04945C50.5081 6.10994 50.5081 3.20894 50.5081 0.256592C52.3649 0.256592 54.1573 0.256592 56.0141 0.256592C56.027 0.513318 56.0528 0.770043 56.0528 1.02677C56.0528 9.9865 56.0528 18.9334 56.0528 27.8931C56.0528 28.3552 56.0657 28.689 55.4596 28.8302C51.9007 29.6389 48.3289 30.1266 44.6669 29.8956C40.3601 29.6389 37.3814 27.3925 36.2209 23.4004C35.8985 22.2708 35.6793 21.0642 35.6664 19.8961C35.6406 18.2787 35.6793 16.6357 35.9888 15.0568C36.7496 11.2573 39.2769 8.97243 43.1195 8.34345C45.5179 7.95836 47.8776 7.99687 50.1471 8.98527C50.2502 9.02378 50.3534 9.02378 50.5081 9.04945ZM50.4952 19.2415C50.4952 17.6113 50.4823 15.9939 50.5081 14.3637C50.521 13.9272 50.3534 13.709 49.9794 13.5293C48.445 12.7976 46.8203 12.5538 45.144 12.8105C42.9132 13.1442 41.6366 14.4279 41.2498 16.6357C40.979 18.2402 41.0435 19.8319 41.4174 21.398C41.9719 23.7085 43.545 25.159 45.7887 25.2103C47.1168 25.236 48.445 25.005 49.7731 24.8766C50.3276 24.8252 50.521 24.5429 50.5081 23.9652C50.4694 22.3864 50.4952 20.8075 50.4952 19.2415Z" fill="#0FC500"/>
<path fill-rule="evenodd" clip-rule="evenodd" d="M65.1177 20.9744C65.1693 22.81 65.8914 24.1963 67.5548 24.7611C68.8185 25.1976 70.1982 25.48 71.5392 25.4928C73.8474 25.5056 76.1426 25.2489 78.541 25.1077C78.541 26.34 78.5539 27.6878 78.5281 29.0356C78.5281 29.164 78.3218 29.3822 78.1799 29.395C74.1826 30.0112 70.1853 30.4091 66.2266 29.2282C62.2164 28.0344 60.2307 25.1334 59.702 21.1285C59.4054 18.8693 59.4828 16.6229 60.1146 14.4151C61.0043 11.2574 63.0546 9.28058 66.2395 8.51041C68.6379 7.93278 71.075 7.91994 73.4863 8.52324C76.9936 9.39611 78.9923 11.7451 79.5468 15.2109C79.8176 16.9182 79.6757 18.6896 79.7273 20.4225C79.7402 21.0129 79.3533 20.9744 78.9407 20.9744C74.621 20.9744 70.3142 20.9744 65.9945 20.9744C65.7238 20.9744 65.4659 20.9744 65.1177 20.9744ZM65.1564 17.0337C68.2769 17.0337 71.3458 17.0337 74.4276 17.0337C74.3502 14.0428 73.0092 12.6052 70.2884 12.4897C67.1293 12.3613 65.4659 13.8118 65.1564 17.0337Z" fill="#0FC500"/>
<path fill-rule="evenodd" clip-rule="evenodd" d="M130.738 20.9744C125.916 20.9744 121.132 20.9744 116.27 20.9744C116.232 22.5789 116.851 23.747 118.166 24.5429C119.275 25.2104 120.526 25.5185 121.802 25.4928C124.394 25.4543 126.986 25.2746 129.655 25.159C129.655 26.3143 129.668 27.6493 129.629 28.9714C129.629 29.1254 129.371 29.3822 129.204 29.4078C125.658 29.9855 122.086 30.2807 118.527 29.549C113.833 28.5735 111.126 25.4029 110.765 20.615C110.61 18.5484 110.648 16.4945 111.216 14.4792C112.08 11.3985 114.027 9.38324 117.16 8.57456C119.662 7.91991 122.176 7.90707 124.678 8.54888C128.211 9.46026 130.313 11.989 130.803 15.7757C131.009 17.4829 131.035 19.1902 130.738 20.9744ZM116.322 17.0465C119.378 17.0465 122.421 17.0465 125.477 17.0465C125.774 14.3766 124.162 12.6308 121.403 12.4768C118.592 12.3228 116.425 13.6577 116.322 17.0465Z" fill="#0FC500"/>
<path fill-rule="evenodd" clip-rule="evenodd" d="M140.01 29.9213C138.14 29.9213 136.322 29.9213 134.478 29.9213C134.478 22.656 134.478 15.4292 134.478 8.12532C135.806 8.12532 137.121 8.11249 138.423 8.15099C138.578 8.15099 138.797 8.42056 138.836 8.60026C139.055 9.44746 139.223 10.2947 139.429 11.2317C139.893 10.8466 140.306 10.4744 140.732 10.1535C143.594 7.97129 146.792 7.57336 150.132 8.70296C153.059 9.69135 154.194 12.1046 154.297 14.9542C154.426 18.8051 154.348 22.6688 154.348 26.5326C154.348 27.6493 154.348 28.7661 154.348 29.9342C152.491 29.9342 150.673 29.9342 148.791 29.9342C148.791 29.6389 148.791 29.3822 148.791 29.1255C148.791 25.005 148.688 20.8718 148.829 16.7513C148.958 13.0545 146.676 12.2586 143.942 12.7592C142.576 13.0159 141.363 13.6578 140.319 14.5435C140.113 14.7232 140.01 15.1211 140.01 15.4292C139.997 19.9861 139.997 24.5558 139.997 29.1126C140.009 29.3437 140.01 29.6133 140.01 29.9213Z" fill="#0FC500"/>
<path fill-rule="evenodd" clip-rule="evenodd" d="M169.061 8.1126C169.061 9.65295 169.061 11.0393 169.061 12.5154C167.449 12.5154 165.876 12.5154 164.238 12.5154C164.213 12.7593 164.174 12.939 164.174 13.1316C164.174 16.2893 164.161 19.4342 164.174 22.5919C164.174 22.9513 164.226 23.3236 164.303 23.6702C164.548 24.8254 165.309 25.4801 166.495 25.5443C166.908 25.5699 167.32 25.5571 167.733 25.5571C168.146 25.5571 168.558 25.5571 169.022 25.5571C169.022 27.0204 169.022 28.4453 169.022 29.8958C168.932 29.9214 168.816 29.9728 168.713 29.9728C166.908 29.9599 165.102 30.0113 163.31 29.9086C160.757 29.7802 159.171 28.3041 158.745 25.8138C158.668 25.3389 158.604 24.8511 158.604 24.3633C158.591 17.958 158.604 11.5527 158.604 5.14742C158.604 5.00622 158.616 4.85218 158.642 4.58262C159.919 4.58262 161.195 4.56978 162.472 4.60829C162.601 4.60829 162.768 4.87786 162.82 5.05756C163.039 5.87909 163.246 6.70061 163.4 7.53496C163.491 8.00991 163.71 8.1511 164.187 8.1511C165.528 8.12543 166.869 8.13827 168.21 8.13827C168.494 8.1126 168.752 8.1126 169.061 8.1126Z" fill="#0FC500"/>
<path fill-rule="evenodd" clip-rule="evenodd" d="M177.752 29.9214C175.882 29.9214 174.064 29.9214 172.22 29.9214C172.22 22.656 172.22 15.442 172.22 8.12535C173.561 8.12535 174.889 8.11251 176.218 8.15102C176.346 8.15102 176.54 8.40774 176.579 8.57462C176.785 9.29345 176.965 10.0251 177.146 10.7183C178.087 10.1021 178.99 9.44748 179.944 8.90836C180.924 8.3564 182.02 8.12535 183.219 8.13818C183.219 9.61435 183.219 11.052 183.219 12.541C182.845 12.5924 182.446 12.5924 182.097 12.7079C181.246 12.9903 180.382 13.247 179.596 13.6578C178.319 14.3124 177.623 15.211 177.688 16.8669C177.855 20.936 177.739 25.0179 177.739 29.087C177.752 29.3437 177.752 29.6133 177.752 29.9214Z" fill="#0FC500"/>
<path fill-rule="evenodd" clip-rule="evenodd" d="M32.056 29.9213C30.212 29.9213 28.4455 29.9213 26.6144 29.9213C26.6144 22.6688 26.6144 15.442 26.6144 8.16382C28.4068 8.16382 30.1991 8.16382 32.056 8.16382C32.056 15.3906 32.056 22.6303 32.056 29.9213Z" fill="#0FC500"/>
<path fill-rule="evenodd" clip-rule="evenodd" d="M191.227 29.9213C189.383 29.9213 187.616 29.9213 185.785 29.9213C185.785 22.6688 185.785 15.442 185.785 8.16382C187.578 8.16382 189.37 8.16382 191.227 8.16382C191.227 15.3906 191.227 22.6303 191.227 29.9213Z" fill="#0FC500"/>
<path fill-rule="evenodd" clip-rule="evenodd" d="M26.6016 0.218262C28.4455 0.218262 30.2249 0.218262 32.056 0.218262C32.056 1.65593 32.056 3.06792 32.056 4.55693C30.2636 4.55693 28.4584 4.55693 26.6016 4.55693C26.6016 3.1321 26.6016 1.70727 26.6016 0.218262Z" fill="#0FC500"/>
<path fill-rule="evenodd" clip-rule="evenodd" d="M185.785 4.56962C185.785 3.09345 185.785 1.66862 185.785 0.230957C187.629 0.230957 189.422 0.230957 191.253 0.230957C191.253 1.68146 191.253 3.10628 191.253 4.56962C189.422 4.56962 187.629 4.56962 185.785 4.56962Z" fill="#0FC500"/>
</svg>
